<svg xmlns="http://www.w3.org/2000/svg" viewBox="0 0 48 48" width="48" height="48">
  <defs>
    <linearGradient id="lg" x1="0%" y1="0%" x2="100%" y2="100%">
      <stop offset="0%" style="stop-color:#52b788"/>
      <stop offset="100%" style="stop-color:#2d6a4f"/>
    </linearGradient>
  </defs>
  <circle cx="24" cy="24" r="23" fill="#f0f7f4" stroke="#2d6a4f" stroke-width="1.5"/>
  <g transform="translate(24,19)">
    <path d="M0,-3 C-7,-12 -11,-3 -8,4 C-6,8 -2,6 0,3Z" fill="url(#lg)" opacity="0.85"/>
    <path d="M0,-3 C7,-12 11,-3 8,4 C6,8 2,6 0,3Z" fill="url(#lg)" opacity="0.85"/>
    <path d="M0,-2 C-5,-10 -8,-2 -5,3 C-4,6 -1,5 0,2Z" fill="#2d6a4f"/>
    <path d="M0,-2 C5,-10 8,-2 5,3 C4,6 1,5 0,2Z" fill="#2d6a4f"/>
    <ellipse cx="0" cy="1" rx="2.5" ry="2" fill="#1b4332"/>
    <circle cx="-1" cy="0.5" r="0.6" fill="#52b788"/>
    <circle cx="1" cy="0.5" r="0.6" fill="#52b788"/>
  </g>
  <g transform="translate(24,28)">
    <path d="M-12,0 C-9,-3 -4,3 0,0 C4,-3 9,3 12,0" fill="none" stroke="#40916c" stroke-width="1.5" stroke-linecap="round"/>
  </g>
  <text x="24" y="42" text-anchor="middle" font-family="PingFang SC, Microsoft YaHei, serif" font-size="8" font-weight="700" fill="#2d6a4f">福溪</text>
</svg>
