<svg xmlns="http://www.w3.org/2000/svg" viewBox="0 0 400 300">
  <defs>
    <linearGradient id="s1sky" x1="0" y1="0" x2="0" y2="1">
      <stop offset="0%" stop-color="#87CEEB"/>
      <stop offset="100%" stop-color="#E0F0FF"/>
    </linearGradient>
  </defs>
  <rect width="400" height="300" fill="url(#s1sky)"/>
  <!-- 远山 -->
  <path d="M0 160 Q60 110 120 140 Q200 90 280 125 Q340 100 400 120 L400 300 L0 300Z" fill="#7aae8a" opacity="0.35"/>
  <!-- 近山 -->
  <path d="M0 190 Q80 150 160 175 Q260 130 360 165 Q380 155 400 160 L400 300 L0 300Z" fill="#4a7c59" opacity="0.5"/>
  <!-- 古建筑群 -->
  <rect x="100" y="140" width="80" height="70" fill="#D4C5A9" rx="1"/>
  <path d="M85 140 L140 105 L195 140" fill="#5C4033"/>
  <path d="M83 140 Q75 137 70 128" stroke="#5C4033" stroke-width="2" fill="none"/>
  <path d="M197 140 Q205 137 210 128" stroke="#5C4033" stroke-width="2" fill="none"/>
  <rect x="220" y="150" width="70" height="60" fill="#C4B49A" rx="1"/>
  <path d="M207 150 L255 118 L303 150" fill="#5C4033"/>
  <path d="M205 150 Q197 147 192 138" stroke="#5C4033" stroke-width="2" fill="none"/>
  <path d="M305 150 Q313 147 318 138" stroke="#5C4033" stroke-width="2" fill="none"/>
  <!-- 窗户 -->
  <rect x="115" y="155" width="12" height="16" fill="#4a3228" rx="1"/>
  <rect x="150" y="155" width="12" height="16" fill="#4a3228" rx="1"/>
  <rect x="235" y="165" width="10" height="14" fill="#4a3228" rx="1"/>
  <rect x="265" y="165" width="10" height="14" fill="#4a3228" rx="1"/>
  <!-- 门 -->
  <rect x="128" y="185" width="20" height="25" fill="#4a3228" rx="1"/>
  <rect x="248" y="190" width="16" height="20" fill="#4a3228" rx="1"/>
  <!-- 石板路 -->
  <path d="M130 210 L150 300 L170 300 L145 210" fill="#9a9590" opacity="0.4"/>
  <!-- 地面 -->
  <path d="M0 210 Q100 200 200 210 Q300 200 400 208 L400 300 L0 300Z" fill="#3d6b4f"/>
  <!-- 福溪 -->
  <path d="M0 230 Q80 225 160 232 Q260 240 360 228 L360 248 Q260 260 160 252 Q80 245 0 250Z" fill="#5BA4CF" opacity="0.6"/>
  <path d="M50 238 Q100 235 150 240" stroke="#8FC4E8" stroke-width="0.8" fill="none" opacity="0.5"/>
  <!-- 红灯笼 -->
  <ellipse cx="105" cy="138" rx="5" ry="8" fill="#DC143C"/>
  <ellipse cx="195" cy="138" rx="5" ry="8" fill="#DC143C"/>
  <text x="200" y="285" text-anchor="middle" font-family="KaiTi,STKaiti,serif" font-size="13" fill="#2d6a4f" opacity="0.8">古村风貌</text>
</svg>