<svg xmlns="http://www.w3.org/2000/svg" viewBox="0 0 400 300">
  <defs>
    <linearGradient id="e1bg" x1="0" y1="0" x2="0" y2="1">
      <stop offset="0%" stop-color="#f5f0e8"/>
      <stop offset="100%" stop-color="#ede5d5"/>
    </linearGradient>
  </defs>
  <rect width="400" height="300" fill="url(#e1bg)"/>
  <!-- 瑶族人群剪影 -->
  <!-- 左侧女性 -->
  <g transform="translate(100,80)">
    <ellipse cx="0" cy="80" rx="28" ry="40" fill="#C0392B" opacity="0.8"/>
    <circle cx="0" cy="25" r="18" fill="#F5D0A9"/>
    <path d="M-18 12 Q0 -15 18 12" fill="#FFD700"/>
    <circle cx="0" cy="-8" r="3.5" fill="#FFD700"/>
    <circle cx="-12" cy="10" r="2" fill="#C0C0C0"/>
    <circle cx="12" cy="10" r="2" fill="#C0C0C0"/>
    <path d="M-28 65 Q-40 55 -45 42" stroke="#F5D0A9" stroke-width="5" fill="none" stroke-linecap="round"/>
    <path d="M28 65 Q40 58 45 48" stroke="#F5D0A9" stroke-width="5" fill="none" stroke-linecap="round"/>
    <circle cx="-5" cy="22" r="1.5" fill="#333"/>
    <circle cx="5" cy="22" r="1.5" fill="#333"/>
  </g>
  <!-- 中间女性 -->
  <g transform="translate(200,70)">
    <ellipse cx="0" cy="85" rx="32" ry="45" fill="#8B0000" opacity="0.85"/>
    <circle cx="0" cy="28" r="20" fill="#F5D0A9"/>
    <path d="M-20 15 Q0 -18 20 15" fill="#FF6347"/>
    <path d="M-16 15 Q0 -10 16 15" fill="#FFD700"/>
    <circle cx="0" cy="-12" r="4" fill="#FFD700"/>
    <circle cx="-14" cy="13" r="2.5" fill="#C0C0C0"/>
    <circle cx="14" cy="13" r="2.5" fill="#C0C0C0"/>
    <circle cx="-5" cy="25" r="1.5" fill="#333"/>
    <circle cx="5" cy="25" r="1.5" fill="#333"/>
    <path d="M-2 31 Q0 34 2 31" stroke="#C0392B" stroke-width="1" fill="none"/>
    <path d="M-32 75 Q-48 70 -52 58" stroke="#F5D0A9" stroke-width="5" fill="none" stroke-linecap="round"/>
    <path d="M32 75 Q48 68 55 55" stroke="#F5D0A9" stroke-width="5" fill="none" stroke-linecap="round"/>
    <!-- 裙摆绣花 -->
    <circle cx="-8" cy="110" r="3" fill="#FFD700" opacity="0.7"/>
    <circle cx="8" cy="115" r="2.5" fill="#32CD32" opacity="0.6"/>
  </g>
  <!-- 右侧男性 -->
  <g transform="translate(310,85)">
    <ellipse cx="0" cy="75" rx="25" ry="38" fill="#2d6a4f" opacity="0.8"/>
    <circle cx="0" cy="25" r="16" fill="#F5D0A9"/>
    <path d="M-16 18 Q0 2 16 18" fill="#1a472a"/>
    <circle cx="-5" cy="23" r="1.5" fill="#333"/>
    <circle cx="5" cy="23" r="1.5" fill="#333"/>
    <path d="M-25 60 Q-38 55 -42 48" stroke="#F5D0A9" stroke-width="5" fill="none" stroke-linecap="round"/>
    <path d="M25 60 Q38 55 42 48" stroke="#F5D0A9" stroke-width="5" fill="none" stroke-linecap="round"/>
  </g>
  <!-- 底部装饰纹样 -->
  <path d="M0 250 Q50 240 100 250 Q150 260 200 250 Q250 240 300 250 Q350 260 400 250" stroke="#C0392B" stroke-width="1.5" fill="none" opacity="0.3"/>
  <path d="M0 260 Q50 250 100 260 Q150 270 200 260 Q250 250 300 260 Q350 270 400 260" stroke="#FFD700" stroke-width="1" fill="none" opacity="0.2"/>
  <!-- 银饰元素装饰 -->
  <g transform="translate(50,200)" opacity="0.15">
    <circle cx="0" cy="0" r="5" fill="#C0C0C0"/>
    <line x1="-5" y1="0" x2="5" y2="0" stroke="#C0C0C0" stroke-width="1"/>
    <line x1="0" y1="-5" x2="0" y2="5" stroke="#C0C0C0" stroke-width="1"/>
  </g>
  <g transform="translate(360,190)" opacity="0.15">
    <circle cx="0" cy="0" r="5" fill="#C0C0C0"/>
    <line x1="-5" y1="0" x2="5" y2="0" stroke="#C0C0C0" stroke-width="1"/>
    <line x1="0" y1="-5" x2="0" y2="5" stroke="#C0C0C0" stroke-width="1"/>
  </g>
  <text x="200" y="285" text-anchor="middle" font-family="KaiTi,STKaiti,serif" font-size="13" fill="#8B0000" opacity="0.7">富川瑶族 · 民族风情</text>
</svg>