<svg xmlns="http://www.w3.org/2000/svg" width="400" height="300" viewBox="0 0 400 300">
  <defs>
    <linearGradient id="gbg" x1="0" y1="0" x2="1" y2="1">
      <stop offset="0%" stop-color="#f0f5f0"/>
      <stop offset="100%" stop-color="#e0ead4"/>
    </linearGradient>
  </defs>
  <rect width="400" height="300" fill="url(#gbg)"/>
  <!-- 图片占位框 -->
  <rect x="50" y="40" width="300" height="200" rx="12" fill="white" stroke="#2d6a4f" stroke-width="1.5" opacity="0.8"/>
  <!-- 山水画 -->
  <path d="M50 200 Q120 120 180 170 Q220 130 260 155 Q300 110 350 160 L350 240 L50 240Z" fill="#4a7c59" opacity="0.3"/>
  <path d="M50 220 Q150 180 250 210 Q300 195 350 215 L350 240 L50 240Z" fill="#3d6b4f" opacity="0.4"/>
  <!-- 图片图标 -->
  <rect x="160" y="100" width="80" height="60" rx="4" fill="#dee2e6"/>
  <circle cx="185" cy="118" r="8" fill="#ced4da"/>
  <polygon points="175,155 200,130 215,142 225,135 245,155" fill="#ced4da"/>
  <!-- 加号 -->
  <circle cx="320" cy="60" r="12" fill="#52b788" opacity="0.7"/>
  <line x1="314" y1="60" x2="326" y2="60" stroke="white" stroke-width="2"/>
  <line x1="320" y1="54" x2="320" y2="66" stroke="white" stroke-width="2"/>
  <text x="200" y="270" text-anchor="middle" font-family="KaiTi,STKaiti,serif" font-size="14" fill="#2d6a4f" opacity="0.7">福溪村 · 画廊</text>
</svg>