<svg xmlns="http://www.w3.org/2000/svg" viewBox="0 0 800 500">
  <defs>
    <linearGradient id="vsky" x1="0" y1="0" x2="0" y2="1">
      <stop offset="0%" stop-color="#87CEEB"/>
      <stop offset="100%" stop-color="#E0F0FF"/>
    </linearGradient>
    <linearGradient id="water" x1="0" y1="0" x2="0" y2="1">
      <stop offset="0%" stop-color="#5BA4CF" stop-opacity="0.6"/>
      <stop offset="100%" stop-color="#3D8EB9" stop-opacity="0.3"/>
    </linearGradient>
  </defs>
  <!-- 天空 -->
  <rect width="800" height="500" fill="url(#vsky)"/>
  <!-- 太阳 -->
  <circle cx="680" cy="70" r="40" fill="#FFD700" opacity="0.7"/>
  <circle cx="680" cy="70" r="35" fill="#FFF8DC" opacity="0.5"/>
  <!-- 远山层叠 -->
  <path d="M0 260 Q100 190 200 230 Q300 170 400 210 Q500 160 600 200 Q700 170 800 220 L800 500 L0 500Z" fill="#7aae8a" opacity="0.4"/>
  <path d="M0 290 Q150 230 300 270 Q450 210 600 260 Q700 230 800 250 L800 500 L0 500Z" fill="#5a8a6a" opacity="0.5"/>
  <!-- 近山 -->
  <path d="M0 320 Q100 270 250 300 Q400 250 550 290 Q700 260 800 280 L800 500 L0 500Z" fill="#4a7c59" opacity="0.7"/>
  <!-- 地面 -->
  <path d="M0 360 Q200 330 400 350 Q600 340 800 355 L800 500 L0 500Z" fill="#3d6b4f"/>
  <!-- 主建筑群 - 左侧宗祠 -->
  <rect x="120" y="250" width="160" height="110" fill="#D4C5A9" rx="2"/>
  <path d="M90 250 L200 190 L310 250" fill="#5C4033" stroke="#4a3228" stroke-width="1"/>
  <path d="M88 250 Q75 246 65 235" stroke="#5C4033" stroke-width="3" fill="none"/>
  <path d="M312 250 Q325 246 335 235" stroke="#5C4033" stroke-width="3" fill="none"/>
  <!-- 屋脊装饰 -->
  <path d="M195 190 Q200 182 205 190" fill="#C8A96E"/>
  <!-- 柱子 -->
  <rect x="140" y="290" width="8" height="70" fill="#8B0000"/>
  <rect x="195" y="290" width="8" height="70" fill="#8B0000"/>
  <rect x="252" y="290" width="8" height="70" fill="#8B0000"/>
  <!-- 匾额 -->
  <rect x="170" y="260" width="60" height="24" fill="#8B0000" rx="2"/>
  <text x="200" y="278" text-anchor="middle" font-family="KaiTi,STKaiti,serif" font-size="14" fill="#FFD700">福溪</text>
  <!-- 台阶 -->
  <rect x="155" y="360" width="90" height="6" fill="#C4B49A"/>
  <rect x="145" y="366" width="110" height="6" fill="#B8A88E"/>
  <!-- 右侧民居 -->
  <rect x="420" y="270" width="120" height="90" fill="#C4B49A" rx="2"/>
  <path d="M400 270 L480 225 L560 270" fill="#5C4033"/>
  <path d="M398 270 Q388 267 380 258" stroke="#5C4033" stroke-width="2.5" fill="none"/>
  <path d="M562 270 Q572 267 580 258" stroke="#5C4033" stroke-width="2.5" fill="none"/>
  <rect x="445" y="300" width="20" height="28" fill="#4a3228" rx="1"/>
  <rect x="490" y="300" width="20" height="28" fill="#4a3228" rx="1"/>
  <rect x="450" y="340" width="60" height="20" fill="#4a3228" rx="1"/>
  <!-- 远处风雨桥 -->
  <rect x="580" y="295" width="8" height="55" fill="#8B7355"/>
  <rect x="680" y="295" width="8" height="55" fill="#8B7355"/>
  <rect x="570" y="295" width="128" height="8" fill="#A0875C"/>
  <rect x="585" y="260" width="100" height="35" fill="#D4C5A9" rx="1"/>
  <path d="M570 260 L635 230 L700 260" fill="#5C4033"/>
  <path d="M568 260 Q558 257 550 248" stroke="#5C4033" stroke-width="2" fill="none"/>
  <path d="M702 260 Q712 257 720 248" stroke="#5C4033" stroke-width="2" fill="none"/>
  <!-- 福溪 -->
  <path d="M0 370 Q200 360 400 375 Q600 385 800 365 L800 420 Q600 440 400 425 Q200 410 0 430Z" fill="url(#water)"/>
  <path d="M50 390 Q150 385 250 392" stroke="#8FC4E8" stroke-width="1" fill="none" opacity="0.5"/>
  <path d="M400 400 Q500 395 600 402" stroke="#8FC4E8" stroke-width="1" fill="none" opacity="0.4"/>
  <!-- 石板路 -->
  <path d="M180 360 L200 500 L220 500 L195 360" fill="#9a9590" opacity="0.4"/>
  <!-- 前景树 -->
  <circle cx="50" cy="310" r="35" fill="#3d6b4f"/>
  <rect x="46" y="340" width="8" height="20" fill="#5C4033"/>
  <circle cx="750" cy="320" r="30" fill="#3d6b4f"/>
  <rect x="746" y="348" width="8" height="18" fill="#5C4033"/>
  <!-- 红灯笼 -->
  <line x1="135" y1="245" x2="135" y2="255" stroke="#C8A96E"/>
  <ellipse cx="135" cy="268" rx="7" ry="12" fill="#DC143C"/>
  <line x1="265" y1="245" x2="265" y2="255" stroke="#C8A96E"/>
  <ellipse cx="265" cy="268" rx="7" ry="12" fill="#DC143C"/>
  <!-- 村口牌匾 -->
  <text x="400" y="470" text-anchor="middle" font-family="KaiTi,STKaiti,serif" font-size="24" fill="white" opacity="0.9">千年古村 · 福溪</text>
</svg>