<svg xmlns="http://www.w3.org/2000/svg" viewBox="0 0 400 300">
  <defs>
    <linearGradient id="sky6" x1="0" y1="0" x2="0" y2="1">
      <stop offset="0%" stop-color="#E8C8D4"/>
      <stop offset="100%" stop-color="#F5E8EC"/>
    </linearGradient>
  </defs>
  <!-- 背景渐变 -->
  <rect width="400" height="300" fill="url(#sky6)"/>
  <!-- 地面 -->
  <rect x="0" y="200" width="400" height="100" fill="#4a7c59" opacity="0.3"/>
  <!-- 瑶族人物 - 女性 -->
  <!-- 身体 -->
  <ellipse cx="150" cy="175" rx="25" ry="35" fill="#C0392B"/>
  <!-- 头部 -->
  <circle cx="150" cy="130" r="18" fill="#F5D0A9"/>
  <!-- 瑶族头饰 -->
  <path d="M132 118 Q150 85 168 118" fill="#FFD700"/>
  <path d="M135 118 Q150 95 165 118" fill="#FF6347"/>
  <circle cx="150" cy="95" r="4" fill="#FFD700"/>
  <!-- 头饰银饰 -->
  <circle cx="138" cy="112" r="2" fill="#C0C0C0"/>
  <circle cx="162" cy="112" r="2" fill="#C0C0C0"/>
  <!-- 面部 -->
  <circle cx="144" cy="128" r="1.5" fill="#333"/>
  <circle cx="156" cy="128" r="1.5" fill="#333"/>
  <path d="M146 135 Q150 139 154 135" stroke="#C0392B" stroke-width="1" fill="none"/>
  <!-- 手臂 -->
  <path d="M125 170 Q110 180 105 195" stroke="#F5D0A9" stroke-width="5" fill="none" stroke-linecap="round"/>
  <path d="M175 170 Q190 165 195 155" stroke="#F5D0A9" stroke-width="5" fill="none" stroke-linecap="round"/>
  <!-- 裙摆 -->
  <path d="M125 210 Q150 220 175 210 L170 195 Q150 200 130 195Z" fill="#8B0000"/>
  <!-- 绣花图案 -->
  <circle cx="140" cy="205" r="3" fill="#FFD700" opacity="0.8"/>
  <circle cx="155" cy="208" r="2.5" fill="#FFD700" opacity="0.8"/>
  <circle cx="150" cy="200" r="2" fill="#32CD32" opacity="0.7"/>
  <!-- 瑶族人物 - 男性 -->
  <ellipse cx="260" cy="180" rx="22" ry="32" fill="#2d6a4f"/>
  <circle cx="260" cy="138" r="16" fill="#F5D0A9"/>
  <!-- 男性头巾 -->
  <path d="M244 130 Q260 118 276 130" fill="#2d6a4f"/>
  <path d="M248 128 Q260 120 272 128" fill="#1a472a"/>
  <!-- 面部 -->
  <circle cx="254" cy="136" r="1.5" fill="#333"/>
  <circle cx="266" cy="136" r="1.5" fill="#333"/>
  <path d="M256 143 Q260 146 264 143" stroke="#8B4513" stroke-width="0.8" fill="none"/>
  <!-- 男性手臂 - 吹芦笙 -->
  <path d="M238 175 Q220 165 210 160" stroke="#F5D0A9" stroke-width="5" fill="none" stroke-linecap="round"/>
  <path d="M282 175 Q295 170 300 165" stroke="#F5D0A9" stroke-width="5" fill="none" stroke-linecap="round"/>
  <!-- 芦笙 -->
  <rect x="200" y="130" width="6" height="80" fill="#8B7355" rx="2" transform="rotate(-15, 203, 170)"/>
  <rect x="190" y="125" width="4" height="60" fill="#8B7355" rx="1" transform="rotate(-15, 192, 155)"/>
  <rect x="210" y="128" width="4" height="65" fill="#8B7355" rx="1" transform="rotate(-15, 212, 160)"/>
  <!-- 裤子 -->
  <rect x="245" y="210" width="12" height="30" fill="#1a472a" rx="1"/>
  <rect x="263" y="210" width="12" height="30" fill="#1a472a" rx="1"/>
  <!-- 长鼓（地面） -->
  <ellipse cx="310" cy="220" rx="18" ry="8" fill="#8B4513"/>
  <rect x="292" cy="212" width="36" height="8" fill="#A0522D" rx="3"/>
  <line x1="310" y1="212" x2="310" y2="220" stroke="#FFD700" stroke-width="1"/>
  <!-- 装饰花纹 -->
  <path d="M0 250 Q50 240 100 250 Q150 260 200 250 Q250 240 300 250 Q350 260 400 250" stroke="#C0392B" stroke-width="1" fill="none" opacity="0.4"/>
  <path d="M0 260 Q50 250 100 260 Q150 270 200 260 Q250 250 300 260 Q350 270 400 260" stroke="#FFD700" stroke-width="0.8" fill="none" opacity="0.3"/>
  <!-- 标题 -->
  <text x="200" y="288" text-anchor="middle" font-family="KaiTi,STKaiti,serif" font-size="14" fill="#8B0000" opacity="0.9">瑶族风情</text>
</svg>