<svg xmlns="http://www.w3.org/2000/svg" width="400" height="300" viewBox="0 0 400 300">
  <defs>
    <linearGradient id="bg" x1="0" y1="0" x2="1" y2="1">
      <stop offset="0%" stop-color="#e8f0e8"/>
      <stop offset="100%" stop-color="#d4e8d4"/>
    </linearGradient>
  </defs>
  <rect width="400" height="300" fill="url(#bg)"/>
  <!-- 文章图标 -->
  <rect x="130" y="60" width="140" height="180" rx="8" fill="white" stroke="#2d6a4f" stroke-width="2"/>
  <rect x="155" y="90" width="90" height="8" rx="4" fill="#2d6a4f" opacity="0.6"/>
  <rect x="155" y="108" width="70" height="6" rx="3" fill="#52b788" opacity="0.5"/>
  <rect x="155" y="125" width="90" height="6" rx="3" fill="#adb5bd" opacity="0.4"/>
  <rect x="155" y="140" width="75" height="6" rx="3" fill="#adb5bd" opacity="0.4"/>
  <rect x="155" y="155" width="85" height="6" rx="3" fill="#adb5bd" opacity="0.4"/>
  <rect x="155" y="170" width="60" height="6" rx="3" fill="#adb5bd" opacity="0.4"/>
  <rect x="155" y="185" width="90" height="6" rx="3" fill="#adb5bd" opacity="0.4"/>
  <rect x="155" y="200" width="45" height="6" rx="3" fill="#adb5bd" opacity="0.4"/>
  <!-- 图片占位区 -->
  <rect x="155" y="95" width="90" height="50" rx="4" fill="#dee2e6"/>
  <circle cx="180" cy="115" r="8" fill="#ced4da"/>
  <polygon points="175,140 200,118 215,130 225,122 245,140" fill="#ced4da"/>
  <text x="200" y="270" text-anchor="middle" font-family="KaiTi,STKaiti,serif" font-size="14" fill="#2d6a4f" opacity="0.7">福溪村 · 文章</text>
</svg>